<svg xmlns="http://www.w3.org/2000/svg" xmlns:xlink="http://www.w3.org/1999/xlink" width="150" zoomAndPan="magnify" viewBox="0 0 112.5 37.5" height="50" preserveAspectRatio="xMidYMid meet" version="1.0"><defs><g/><clipPath id="bba4bc7f52"><path d="M 3 7 L 39 7 L 39 31 L 3 31 Z M 3 7 " clip-rule="nonzero"/></clipPath><clipPath id="f63c065fd8"><path d="M 2.347656 9.320312 L 38.550781 7.152344 L 39.789062 27.839844 L 3.589844 30.007812 Z M 2.347656 9.320312 " clip-rule="nonzero"/></clipPath><clipPath id="ee6f60c878"><path d="M 1.914062 2.082031 L 38.117188 -0.0859375 L 40.199219 34.636719 L 3.996094 36.804688 Z M 1.914062 2.082031 " clip-rule="nonzero"/></clipPath></defs><g clip-path="url(#bba4bc7f52)"><g clip-path="url(#f63c065fd8)"><g clip-path="url(#ee6f60c878)"><path fill="#ff3131" d="M 29.914062 27.6875 L 28.035156 26.015625 C 27.675781 25.699219 27.640625 25.152344 27.960938 24.792969 L 30.117188 22.359375 C 30.433594 22 30.402344 21.453125 30.042969 21.136719 C 29.683594 20.816406 29.136719 20.851562 28.820312 21.210938 L 24.964844 25.554688 C 24.566406 26.003906 23.882812 26.046875 23.433594 25.648438 C 22.988281 25.25 22.945312 24.566406 23.34375 24.117188 L 29.785156 16.855469 C 30.105469 16.496094 30.070312 15.949219 29.714844 15.628906 C 29.355469 15.3125 28.808594 15.34375 28.488281 15.703125 L 14.6875 31.265625 C 14.292969 31.710938 13.605469 31.753906 13.160156 31.355469 C 12.710938 30.957031 12.671875 30.273438 13.066406 29.828125 L 24.28125 17.183594 C 24.597656 16.824219 24.566406 16.277344 24.207031 15.960938 C 23.847656 15.640625 23.300781 15.675781 22.984375 16.03125 L 18.609375 20.964844 C 18.292969 21.320312 17.746094 21.355469 17.386719 21.035156 L 17.0625 20.75 C 16.703125 20.429688 16.667969 19.882812 16.988281 19.523438 L 23.949219 11.675781 C 24.265625 11.316406 24.234375 10.769531 23.875 10.453125 C 23.515625 10.132812 22.96875 10.167969 22.652344 10.523438 L 6.253906 29.019531 C 5.855469 29.46875 5.171875 29.507812 4.722656 29.113281 C 4.277344 28.714844 4.234375 28.03125 4.632812 27.582031 L 18.445312 12.007812 C 18.761719 11.648438 18.730469 11.101562 18.371094 10.785156 C 18.011719 10.464844 17.464844 10.5 17.144531 10.859375 L 14.992188 13.289062 C 14.671875 13.648438 14.125 13.679688 13.765625 13.363281 L 11.882812 11.695312 C 11.402344 11.265625 11.539062 10.480469 12.136719 10.242188 L 37.144531 0.203125 C 37.808594 -0.0625 38.492188 0.542969 38.304688 1.234375 L 31.328125 27.261719 C 31.160156 27.882812 30.398438 28.113281 29.914062 27.6875 Z M 15.625 22.699219 C 15.175781 22.304688 14.492188 22.34375 14.09375 22.792969 L 4.246094 33.894531 C 3.847656 34.34375 3.890625 35.027344 4.339844 35.425781 C 4.785156 35.820312 5.46875 35.78125 5.867188 35.332031 L 15.714844 24.230469 C 16.113281 23.78125 16.070312 23.097656 15.625 22.699219 Z M 22.035156 27.226562 C 21.585938 26.828125 20.902344 26.871094 20.507812 27.320312 L 14.105469 34.535156 C 13.707031 34.984375 13.75 35.667969 14.195312 36.066406 C 14.644531 36.460938 15.328125 36.421875 15.726562 35.972656 L 22.125 28.753906 C 22.523438 28.308594 22.484375 27.625 22.035156 27.226562 Z M 12.535156 32.019531 C 12.097656 31.632812 11.429688 31.671875 11.042969 32.109375 C 10.65625 32.546875 10.695312 33.214844 11.132812 33.601562 C 11.566406 33.988281 12.234375 33.949219 12.621094 33.511719 C 13.011719 33.074219 12.96875 32.40625 12.535156 32.019531 Z M 12.535156 32.019531 " fill-opacity="1" fill-rule="nonzero"/></g></g></g><g fill="#000000" fill-opacity="1"><g transform="translate(37.703506, 22.452723)"><g><path d="M 0.1875 -13.34375 L 6.671875 -13.34375 L 6.671875 -11.4375 L 4.484375 -11.4375 L 4.484375 0 L 2.390625 0 L 2.390625 -11.4375 L 0.1875 -11.4375 Z M 0.1875 -13.34375 "/></g></g></g><g fill="#000000" fill-opacity="1"><g transform="translate(44.562839, 22.452723)"><g><path d="M 2.859375 -7.71875 L 5.734375 -7.71875 L 5.734375 -5.8125 L 2.859375 -5.8125 L 2.859375 -1.90625 L 6.484375 -1.90625 L 6.484375 0 L 0.765625 0 L 0.765625 -13.34375 L 6.484375 -13.34375 L 6.484375 -11.4375 L 2.859375 -11.4375 Z M 2.859375 -7.71875 "/></g></g></g><g fill="#000000" fill-opacity="1"><g transform="translate(51.574599, 22.452723)"><g><path d="M 6.84375 -4.96875 L 6.84375 -3.203125 C 6.84375 -2.117188 6.578125 -1.285156 6.046875 -0.703125 C 5.523438 -0.128906 4.75 0.15625 3.71875 0.15625 C 2.6875 0.15625 1.90625 -0.128906 1.375 -0.703125 C 0.851562 -1.285156 0.59375 -2.117188 0.59375 -3.203125 L 0.59375 -10.140625 C 0.59375 -11.222656 0.851562 -12.050781 1.375 -12.625 C 1.90625 -13.207031 2.6875 -13.5 3.71875 -13.5 C 4.75 -13.5 5.523438 -13.207031 6.046875 -12.625 C 6.578125 -12.050781 6.84375 -11.222656 6.84375 -10.140625 L 6.84375 -8.84375 L 4.859375 -8.84375 L 4.859375 -10.28125 C 4.859375 -10.757812 4.757812 -11.097656 4.5625 -11.296875 C 4.363281 -11.492188 4.101562 -11.59375 3.78125 -11.59375 C 3.445312 -11.59375 3.179688 -11.492188 2.984375 -11.296875 C 2.785156 -11.097656 2.6875 -10.757812 2.6875 -10.28125 L 2.6875 -3.0625 C 2.6875 -2.582031 2.785156 -2.242188 2.984375 -2.046875 C 3.179688 -1.859375 3.445312 -1.765625 3.78125 -1.765625 C 4.101562 -1.765625 4.363281 -1.859375 4.5625 -2.046875 C 4.757812 -2.242188 4.859375 -2.582031 4.859375 -3.0625 L 4.859375 -4.96875 Z M 6.84375 -4.96875 "/></g></g></g><g fill="#000000" fill-opacity="1"><g transform="translate(58.929327, 22.452723)"><g><path d="M 2.859375 0 L 0.765625 0 L 0.765625 -13.34375 L 2.859375 -13.34375 L 2.859375 -7.625 L 5.25 -7.625 L 5.25 -13.34375 L 7.375 -13.34375 L 7.375 0 L 5.25 0 L 5.25 -5.71875 L 2.859375 -5.71875 Z M 2.859375 0 "/></g></g></g><g fill="#ff3131" fill-opacity="1"><g transform="translate(70.256118, 22.452723)"><g><path d="M 0.5 -10.140625 C 0.5 -11.222656 0.753906 -12.050781 1.265625 -12.625 C 1.785156 -13.207031 2.554688 -13.5 3.578125 -13.5 C 4.609375 -13.5 5.378906 -13.207031 5.890625 -12.625 C 6.410156 -12.050781 6.671875 -11.222656 6.671875 -10.140625 L 6.671875 -9.625 L 4.6875 -9.625 L 4.6875 -10.28125 C 4.6875 -10.757812 4.59375 -11.097656 4.40625 -11.296875 C 4.226562 -11.492188 3.972656 -11.59375 3.640625 -11.59375 C 3.304688 -11.59375 3.046875 -11.492188 2.859375 -11.296875 C 2.679688 -11.097656 2.59375 -10.757812 2.59375 -10.28125 C 2.59375 -9.820312 2.691406 -9.414062 2.890625 -9.0625 C 3.097656 -8.71875 3.351562 -8.390625 3.65625 -8.078125 C 3.96875 -7.765625 4.296875 -7.453125 4.640625 -7.140625 C 4.992188 -6.828125 5.320312 -6.484375 5.625 -6.109375 C 5.925781 -5.742188 6.175781 -5.328125 6.375 -4.859375 C 6.582031 -4.390625 6.6875 -3.835938 6.6875 -3.203125 C 6.6875 -2.117188 6.421875 -1.285156 5.890625 -0.703125 C 5.367188 -0.128906 4.59375 0.15625 3.5625 0.15625 C 2.53125 0.15625 1.75 -0.128906 1.21875 -0.703125 C 0.695312 -1.285156 0.4375 -2.117188 0.4375 -3.203125 L 0.4375 -4.125 L 2.421875 -4.125 L 2.421875 -3.0625 C 2.421875 -2.582031 2.519531 -2.242188 2.71875 -2.046875 C 2.914062 -1.859375 3.175781 -1.765625 3.5 -1.765625 C 3.832031 -1.765625 4.097656 -1.859375 4.296875 -2.046875 C 4.492188 -2.242188 4.59375 -2.582031 4.59375 -3.0625 C 4.59375 -3.519531 4.488281 -3.921875 4.28125 -4.265625 C 4.082031 -4.617188 3.828125 -4.953125 3.515625 -5.265625 C 3.210938 -5.578125 2.882812 -5.890625 2.53125 -6.203125 C 2.1875 -6.515625 1.863281 -6.851562 1.5625 -7.21875 C 1.257812 -7.59375 1.003906 -8.015625 0.796875 -8.484375 C 0.597656 -8.953125 0.5 -9.503906 0.5 -10.140625 Z M 0.5 -10.140625 "/></g></g></g><g fill="#ff3131" fill-opacity="1"><g transform="translate(77.3822, 22.452723)"><g><path d="M 3.84375 -13.34375 C 4.90625 -13.34375 5.691406 -13.0625 6.203125 -12.5 C 6.722656 -11.945312 6.984375 -11.128906 6.984375 -10.046875 L 6.984375 -8.3125 C 6.984375 -7.226562 6.722656 -6.40625 6.203125 -5.84375 C 5.691406 -5.289062 4.90625 -5.015625 3.84375 -5.015625 L 2.859375 -5.015625 L 2.859375 0 L 0.765625 0 L 0.765625 -13.34375 Z M 2.859375 -11.4375 L 2.859375 -6.921875 L 3.84375 -6.921875 C 4.175781 -6.921875 4.429688 -7.007812 4.609375 -7.1875 C 4.785156 -7.363281 4.875 -7.691406 4.875 -8.171875 L 4.875 -10.171875 C 4.875 -10.660156 4.785156 -10.992188 4.609375 -11.171875 C 4.429688 -11.347656 4.175781 -11.4375 3.84375 -11.4375 Z M 2.859375 -11.4375 "/></g></g></g><g fill="#ff3131" fill-opacity="1"><g transform="translate(84.565442, 22.452723)"><g><path d="M 2.6875 -3.0625 C 2.6875 -2.582031 2.785156 -2.242188 2.984375 -2.046875 C 3.179688 -1.847656 3.445312 -1.75 3.78125 -1.75 C 4.101562 -1.75 4.363281 -1.847656 4.5625 -2.046875 C 4.757812 -2.242188 4.859375 -2.582031 4.859375 -3.0625 L 4.859375 -10.28125 C 4.859375 -10.757812 4.757812 -11.097656 4.5625 -11.296875 C 4.363281 -11.492188 4.101562 -11.59375 3.78125 -11.59375 C 3.445312 -11.59375 3.179688 -11.492188 2.984375 -11.296875 C 2.785156 -11.097656 2.6875 -10.757812 2.6875 -10.28125 Z M 0.59375 -10.140625 C 0.59375 -11.222656 0.863281 -12.050781 1.40625 -12.625 C 1.957031 -13.207031 2.75 -13.5 3.78125 -13.5 C 4.800781 -13.5 5.582031 -13.207031 6.125 -12.625 C 6.675781 -12.050781 6.953125 -11.222656 6.953125 -10.140625 L 6.953125 -3.203125 C 6.953125 -2.117188 6.675781 -1.285156 6.125 -0.703125 C 5.582031 -0.128906 4.800781 0.15625 3.78125 0.15625 C 2.75 0.15625 1.957031 -0.128906 1.40625 -0.703125 C 0.863281 -1.285156 0.59375 -2.117188 0.59375 -3.203125 Z M 0.59375 -10.140625 "/></g></g></g><g fill="#ff3131" fill-opacity="1"><g transform="translate(92.110707, 22.452723)"><g><path d="M 0.1875 -13.34375 L 6.671875 -13.34375 L 6.671875 -11.4375 L 4.484375 -11.4375 L 4.484375 0 L 2.390625 0 L 2.390625 -11.4375 L 0.1875 -11.4375 Z M 0.1875 -13.34375 "/></g></g></g><g fill="#000000" fill-opacity="1"><g transform="translate(38.831914, 28.721676)"><g><path d="M 2.53125 -4.21875 C 2.53125 -4.175781 2.507812 -4.15625 2.46875 -4.15625 L 0.953125 -4.15625 C 0.941406 -4.15625 0.9375 -4.144531 0.9375 -4.125 L 0.9375 -2.515625 C 0.9375 -2.492188 0.941406 -2.484375 0.953125 -2.484375 L 1.90625 -2.484375 C 1.945312 -2.484375 1.96875 -2.460938 1.96875 -2.421875 L 1.96875 -2.140625 C 1.96875 -2.097656 1.945312 -2.078125 1.90625 -2.078125 L 0.953125 -2.078125 C 0.941406 -2.078125 0.9375 -2.066406 0.9375 -2.046875 L 0.9375 -0.4375 C 0.9375 -0.414062 0.941406 -0.40625 0.953125 -0.40625 L 2.46875 -0.40625 C 2.507812 -0.40625 2.53125 -0.382812 2.53125 -0.34375 L 2.53125 -0.0625 C 2.53125 -0.0195312 2.507812 0 2.46875 0 L 0.53125 0 C 0.488281 0 0.46875 -0.0195312 0.46875 -0.0625 L 0.46875 -4.5 C 0.46875 -4.539062 0.488281 -4.5625 0.53125 -4.5625 L 2.46875 -4.5625 C 2.507812 -4.5625 2.53125 -4.539062 2.53125 -4.5 Z M 2.53125 -4.21875 "/></g></g></g><g fill="#000000" fill-opacity="1"><g transform="translate(41.628006, 28.721676)"><g><path d="M 3.03125 -3.34375 C 3.289062 -3.34375 3.492188 -3.242188 3.640625 -3.046875 C 3.785156 -2.859375 3.859375 -2.597656 3.859375 -2.265625 L 3.859375 -0.0625 C 3.859375 -0.0195312 3.835938 0 3.796875 0 L 3.46875 0 C 3.425781 0 3.40625 -0.0195312 3.40625 -0.0625 L 3.40625 -2.21875 C 3.40625 -2.4375 3.359375 -2.609375 3.265625 -2.734375 C 3.171875 -2.867188 3.046875 -2.9375 2.890625 -2.9375 C 2.722656 -2.9375 2.59375 -2.875 2.5 -2.75 C 2.40625 -2.625 2.359375 -2.453125 2.359375 -2.234375 L 2.359375 -0.0625 C 2.359375 -0.0195312 2.335938 0 2.296875 0 L 1.96875 0 C 1.914062 0 1.890625 -0.0195312 1.890625 -0.0625 L 1.890625 -2.21875 C 1.890625 -2.4375 1.84375 -2.609375 1.75 -2.734375 C 1.65625 -2.867188 1.535156 -2.9375 1.390625 -2.9375 C 1.222656 -2.9375 1.09375 -2.875 1 -2.75 C 0.90625 -2.625 0.859375 -2.453125 0.859375 -2.234375 L 0.859375 -0.0625 C 0.859375 -0.0195312 0.832031 0 0.78125 0 L 0.46875 0 C 0.414062 0 0.390625 -0.0195312 0.390625 -0.0625 L 0.390625 -3.234375 C 0.390625 -3.273438 0.414062 -3.296875 0.46875 -3.296875 L 0.78125 -3.296875 C 0.832031 -3.296875 0.859375 -3.273438 0.859375 -3.234375 L 0.859375 -3.03125 C 0.859375 -3.019531 0.859375 -3.015625 0.859375 -3.015625 C 0.867188 -3.015625 0.878906 -3.015625 0.890625 -3.015625 C 0.972656 -3.128906 1.066406 -3.210938 1.171875 -3.265625 C 1.285156 -3.316406 1.40625 -3.34375 1.53125 -3.34375 C 1.695312 -3.34375 1.84375 -3.300781 1.96875 -3.21875 C 2.09375 -3.132812 2.1875 -3.019531 2.25 -2.875 C 2.25 -2.863281 2.253906 -2.859375 2.265625 -2.859375 C 2.273438 -2.859375 2.28125 -2.867188 2.28125 -2.890625 C 2.363281 -3.046875 2.472656 -3.160156 2.609375 -3.234375 C 2.742188 -3.304688 2.882812 -3.34375 3.03125 -3.34375 Z M 3.03125 -3.34375 "/></g></g></g><g fill="#000000" fill-opacity="1"><g transform="translate(45.851479, 28.721676)"><g><path d="M 1.5625 -3.34375 C 1.832031 -3.34375 2.050781 -3.25 2.21875 -3.0625 C 2.382812 -2.882812 2.46875 -2.648438 2.46875 -2.359375 L 2.46875 -0.9375 C 2.46875 -0.632812 2.382812 -0.394531 2.21875 -0.21875 C 2.050781 -0.0390625 1.832031 0.046875 1.5625 0.046875 C 1.4375 0.046875 1.316406 0.0234375 1.203125 -0.015625 C 1.097656 -0.0546875 1.003906 -0.128906 0.921875 -0.234375 C 0.910156 -0.234375 0.898438 -0.234375 0.890625 -0.234375 C 0.890625 -0.234375 0.890625 -0.226562 0.890625 -0.21875 L 0.890625 1.203125 C 0.890625 1.242188 0.867188 1.265625 0.828125 1.265625 L 0.5 1.265625 C 0.457031 1.265625 0.4375 1.242188 0.4375 1.203125 L 0.4375 -3.234375 C 0.4375 -3.273438 0.457031 -3.296875 0.5 -3.296875 L 0.828125 -3.296875 C 0.867188 -3.296875 0.890625 -3.273438 0.890625 -3.234375 L 0.890625 -3.078125 C 0.890625 -3.066406 0.894531 -3.0625 0.90625 -3.0625 C 0.914062 -3.0625 0.925781 -3.066406 0.9375 -3.078125 C 1.007812 -3.171875 1.097656 -3.238281 1.203125 -3.28125 C 1.316406 -3.320312 1.4375 -3.34375 1.5625 -3.34375 Z M 2 -2.3125 C 2 -2.5 1.945312 -2.648438 1.84375 -2.765625 C 1.738281 -2.878906 1.601562 -2.9375 1.4375 -2.9375 C 1.28125 -2.9375 1.148438 -2.878906 1.046875 -2.765625 C 0.941406 -2.648438 0.890625 -2.5 0.890625 -2.3125 L 0.890625 -0.984375 C 0.890625 -0.796875 0.941406 -0.644531 1.046875 -0.53125 C 1.148438 -0.414062 1.28125 -0.359375 1.4375 -0.359375 C 1.601562 -0.359375 1.738281 -0.414062 1.84375 -0.53125 C 1.945312 -0.644531 2 -0.796875 2 -0.984375 Z M 2 -2.3125 "/></g></g></g><g fill="#000000" fill-opacity="1"><g transform="translate(48.641058, 28.721676)"><g><path d="M 1.34375 0.046875 C 1.03125 0.046875 0.78125 -0.0390625 0.59375 -0.21875 C 0.414062 -0.40625 0.328125 -0.644531 0.328125 -0.9375 L 0.328125 -2.34375 C 0.328125 -2.632812 0.421875 -2.875 0.609375 -3.0625 C 0.796875 -3.25 1.039062 -3.34375 1.34375 -3.34375 C 1.65625 -3.34375 1.90625 -3.25 2.09375 -3.0625 C 2.28125 -2.875 2.375 -2.632812 2.375 -2.34375 L 2.375 -0.9375 C 2.375 -0.644531 2.28125 -0.40625 2.09375 -0.21875 C 1.90625 -0.0390625 1.65625 0.046875 1.34375 0.046875 Z M 1.34375 -0.359375 C 1.507812 -0.359375 1.644531 -0.414062 1.75 -0.53125 C 1.863281 -0.644531 1.921875 -0.796875 1.921875 -0.984375 L 1.921875 -2.3125 C 1.921875 -2.5 1.863281 -2.648438 1.75 -2.765625 C 1.644531 -2.878906 1.507812 -2.9375 1.34375 -2.9375 C 1.175781 -2.9375 1.039062 -2.878906 0.9375 -2.765625 C 0.832031 -2.648438 0.78125 -2.5 0.78125 -2.3125 L 0.78125 -0.984375 C 0.78125 -0.796875 0.832031 -0.644531 0.9375 -0.53125 C 1.039062 -0.414062 1.175781 -0.359375 1.34375 -0.359375 Z M 1.34375 -0.359375 "/></g></g></g><g fill="#000000" fill-opacity="1"><g transform="translate(51.345905, 28.721676)"><g><path d="M 0.921875 0 C 0.878906 0 0.851562 -0.0195312 0.84375 -0.0625 L 0.15625 -3.21875 L 0.15625 -3.234375 C 0.15625 -3.273438 0.175781 -3.296875 0.21875 -3.296875 L 0.53125 -3.296875 C 0.570312 -3.296875 0.597656 -3.273438 0.609375 -3.234375 L 1.078125 -0.75 C 1.078125 -0.738281 1.078125 -0.734375 1.078125 -0.734375 C 1.085938 -0.734375 1.09375 -0.738281 1.09375 -0.75 L 1.578125 -3.234375 C 1.585938 -3.273438 1.613281 -3.296875 1.65625 -3.296875 L 1.953125 -3.296875 C 1.992188 -3.296875 2.015625 -3.273438 2.015625 -3.234375 L 2.5 -0.75 C 2.507812 -0.738281 2.515625 -0.734375 2.515625 -0.734375 C 2.515625 -0.734375 2.519531 -0.738281 2.53125 -0.75 L 3.015625 -3.234375 C 3.015625 -3.273438 3.035156 -3.296875 3.078125 -3.296875 L 3.390625 -3.296875 C 3.441406 -3.296875 3.460938 -3.269531 3.453125 -3.21875 L 2.765625 -0.0625 C 2.753906 -0.0195312 2.726562 0 2.6875 0 L 2.359375 0 C 2.316406 0 2.289062 -0.0195312 2.28125 -0.0625 L 1.8125 -2.4375 C 1.800781 -2.457031 1.789062 -2.46875 1.78125 -2.46875 C 1.78125 -2.46875 1.78125 -2.457031 1.78125 -2.4375 L 1.3125 -0.0625 C 1.3125 -0.0195312 1.289062 0 1.25 0 Z M 0.921875 0 "/></g></g></g><g fill="#000000" fill-opacity="1"><g transform="translate(54.956716, 28.721676)"><g><path d="M 2.359375 -1.53125 C 2.359375 -1.488281 2.335938 -1.46875 2.296875 -1.46875 L 0.8125 -1.46875 C 0.789062 -1.46875 0.78125 -1.460938 0.78125 -1.453125 L 0.78125 -0.96875 C 0.78125 -0.789062 0.832031 -0.644531 0.9375 -0.53125 C 1.039062 -0.414062 1.175781 -0.359375 1.34375 -0.359375 C 1.476562 -0.359375 1.59375 -0.398438 1.6875 -0.484375 C 1.789062 -0.566406 1.859375 -0.675781 1.890625 -0.8125 C 1.898438 -0.84375 1.925781 -0.859375 1.96875 -0.859375 L 2.28125 -0.859375 C 2.300781 -0.859375 2.316406 -0.847656 2.328125 -0.828125 C 2.347656 -0.816406 2.351562 -0.800781 2.34375 -0.78125 C 2.3125 -0.519531 2.207031 -0.316406 2.03125 -0.171875 C 1.851562 -0.0234375 1.625 0.046875 1.34375 0.046875 C 1.03125 0.046875 0.78125 -0.0390625 0.59375 -0.21875 C 0.414062 -0.40625 0.328125 -0.644531 0.328125 -0.9375 L 0.328125 -2.359375 C 0.328125 -2.648438 0.414062 -2.882812 0.59375 -3.0625 C 0.78125 -3.25 1.03125 -3.34375 1.34375 -3.34375 C 1.65625 -3.34375 1.898438 -3.25 2.078125 -3.0625 C 2.265625 -2.882812 2.359375 -2.648438 2.359375 -2.359375 Z M 1.34375 -2.9375 C 1.175781 -2.9375 1.039062 -2.878906 0.9375 -2.765625 C 0.832031 -2.648438 0.78125 -2.5 0.78125 -2.3125 L 0.78125 -1.890625 C 0.78125 -1.867188 0.789062 -1.859375 0.8125 -1.859375 L 1.890625 -1.859375 C 1.898438 -1.859375 1.90625 -1.867188 1.90625 -1.890625 L 1.90625 -2.3125 C 1.90625 -2.5 1.851562 -2.648438 1.75 -2.765625 C 1.644531 -2.878906 1.507812 -2.9375 1.34375 -2.9375 Z M 1.34375 -2.9375 "/></g></g></g><g fill="#000000" fill-opacity="1"><g transform="translate(57.609421, 28.721676)"><g><path d="M 1.515625 -3.328125 C 1.617188 -3.328125 1.710938 -3.304688 1.796875 -3.265625 C 1.828125 -3.242188 1.835938 -3.210938 1.828125 -3.171875 L 1.75 -2.828125 C 1.738281 -2.796875 1.710938 -2.785156 1.671875 -2.796875 C 1.617188 -2.816406 1.550781 -2.828125 1.46875 -2.828125 C 1.4375 -2.828125 1.410156 -2.828125 1.390625 -2.828125 C 1.234375 -2.816406 1.101562 -2.734375 1 -2.578125 C 0.90625 -2.429688 0.859375 -2.242188 0.859375 -2.015625 L 0.859375 -0.0625 C 0.859375 -0.0195312 0.835938 0 0.796875 0 L 0.46875 0 C 0.414062 0 0.390625 -0.0195312 0.390625 -0.0625 L 0.390625 -3.234375 C 0.390625 -3.273438 0.414062 -3.296875 0.46875 -3.296875 L 0.796875 -3.296875 C 0.835938 -3.296875 0.859375 -3.273438 0.859375 -3.234375 L 0.859375 -2.84375 C 0.859375 -2.832031 0.859375 -2.828125 0.859375 -2.828125 C 0.867188 -2.828125 0.878906 -2.828125 0.890625 -2.828125 C 1.015625 -3.160156 1.222656 -3.328125 1.515625 -3.328125 Z M 1.515625 -3.328125 "/></g></g></g><g fill="#000000" fill-opacity="1"><g transform="translate(59.512591, 28.721676)"><g><path d="M 0.625 0 C 0.519531 0 0.429688 -0.0351562 0.359375 -0.109375 C 0.296875 -0.179688 0.265625 -0.269531 0.265625 -0.375 C 0.265625 -0.476562 0.296875 -0.5625 0.359375 -0.625 C 0.429688 -0.695312 0.519531 -0.734375 0.625 -0.734375 C 0.726562 -0.734375 0.8125 -0.695312 0.875 -0.625 C 0.945312 -0.5625 0.984375 -0.476562 0.984375 -0.375 C 0.984375 -0.269531 0.945312 -0.179688 0.875 -0.109375 C 0.8125 -0.0351562 0.726562 0 0.625 0 Z M 0.625 0 "/></g></g></g><g fill="#000000" fill-opacity="1"><g transform="translate(60.750956, 28.721676)"><g/></g></g><g fill="#000000" fill-opacity="1"><g transform="translate(62.054498, 28.721676)"><g><path d="M 2.53125 -4.21875 C 2.53125 -4.175781 2.507812 -4.15625 2.46875 -4.15625 L 0.953125 -4.15625 C 0.941406 -4.15625 0.9375 -4.144531 0.9375 -4.125 L 0.9375 -2.515625 C 0.9375 -2.492188 0.941406 -2.484375 0.953125 -2.484375 L 1.90625 -2.484375 C 1.945312 -2.484375 1.96875 -2.460938 1.96875 -2.421875 L 1.96875 -2.140625 C 1.96875 -2.097656 1.945312 -2.078125 1.90625 -2.078125 L 0.953125 -2.078125 C 0.941406 -2.078125 0.9375 -2.066406 0.9375 -2.046875 L 0.9375 -0.4375 C 0.9375 -0.414062 0.941406 -0.40625 0.953125 -0.40625 L 2.46875 -0.40625 C 2.507812 -0.40625 2.53125 -0.382812 2.53125 -0.34375 L 2.53125 -0.0625 C 2.53125 -0.0195312 2.507812 0 2.46875 0 L 0.53125 0 C 0.488281 0 0.46875 -0.0195312 0.46875 -0.0625 L 0.46875 -4.5 C 0.46875 -4.539062 0.488281 -4.5625 0.53125 -4.5625 L 2.46875 -4.5625 C 2.507812 -4.5625 2.53125 -4.539062 2.53125 -4.5 Z M 2.53125 -4.21875 "/></g></g></g><g fill="#000000" fill-opacity="1"><g transform="translate(64.85059, 28.721676)"><g><path d="M 1.046875 0 C 1.003906 0 0.976562 -0.0195312 0.96875 -0.0625 L 0.15625 -3.21875 L 0.15625 -3.25 C 0.15625 -3.28125 0.175781 -3.296875 0.21875 -3.296875 L 0.59375 -3.296875 C 0.632812 -3.296875 0.660156 -3.273438 0.671875 -3.234375 L 1.21875 -0.765625 C 1.226562 -0.753906 1.234375 -0.75 1.234375 -0.75 C 1.242188 -0.75 1.25 -0.753906 1.25 -0.765625 L 1.8125 -3.234375 C 1.8125 -3.273438 1.832031 -3.296875 1.875 -3.296875 L 2.25 -3.296875 C 2.269531 -3.296875 2.285156 -3.285156 2.296875 -3.265625 C 2.304688 -3.253906 2.3125 -3.238281 2.3125 -3.21875 L 1.5 -0.0625 C 1.5 -0.0195312 1.476562 0 1.4375 0 Z M 1.046875 0 "/></g></g></g><g fill="#000000" fill-opacity="1"><g transform="translate(67.3208, 28.721676)"><g><path d="M 1.34375 0.046875 C 1.03125 0.046875 0.78125 -0.0390625 0.59375 -0.21875 C 0.414062 -0.40625 0.328125 -0.644531 0.328125 -0.9375 L 0.328125 -2.34375 C 0.328125 -2.632812 0.421875 -2.875 0.609375 -3.0625 C 0.796875 -3.25 1.039062 -3.34375 1.34375 -3.34375 C 1.65625 -3.34375 1.90625 -3.25 2.09375 -3.0625 C 2.28125 -2.875 2.375 -2.632812 2.375 -2.34375 L 2.375 -0.9375 C 2.375 -0.644531 2.28125 -0.40625 2.09375 -0.21875 C 1.90625 -0.0390625 1.65625 0.046875 1.34375 0.046875 Z M 1.34375 -0.359375 C 1.507812 -0.359375 1.644531 -0.414062 1.75 -0.53125 C 1.863281 -0.644531 1.921875 -0.796875 1.921875 -0.984375 L 1.921875 -2.3125 C 1.921875 -2.5 1.863281 -2.648438 1.75 -2.765625 C 1.644531 -2.878906 1.507812 -2.9375 1.34375 -2.9375 C 1.175781 -2.9375 1.039062 -2.878906 0.9375 -2.765625 C 0.832031 -2.648438 0.78125 -2.5 0.78125 -2.3125 L 0.78125 -0.984375 C 0.78125 -0.796875 0.832031 -0.644531 0.9375 -0.53125 C 1.039062 -0.414062 1.175781 -0.359375 1.34375 -0.359375 Z M 1.34375 -0.359375 "/></g></g></g><g fill="#000000" fill-opacity="1"><g transform="translate(70.025648, 28.721676)"><g><path d="M 0.421875 0 C 0.378906 0 0.359375 -0.0195312 0.359375 -0.0625 L 0.359375 -4.5 C 0.359375 -4.539062 0.378906 -4.5625 0.421875 -4.5625 L 0.75 -4.5625 C 0.800781 -4.5625 0.828125 -4.539062 0.828125 -4.5 L 0.828125 -0.0625 C 0.828125 -0.0195312 0.800781 0 0.75 0 Z M 0.421875 0 "/></g></g></g><g fill="#000000" fill-opacity="1"><g transform="translate(71.205351, 28.721676)"><g><path d="M 1.046875 0 C 1.003906 0 0.976562 -0.0195312 0.96875 -0.0625 L 0.15625 -3.21875 L 0.15625 -3.25 C 0.15625 -3.28125 0.175781 -3.296875 0.21875 -3.296875 L 0.59375 -3.296875 C 0.632812 -3.296875 0.660156 -3.273438 0.671875 -3.234375 L 1.21875 -0.765625 C 1.226562 -0.753906 1.234375 -0.75 1.234375 -0.75 C 1.242188 -0.75 1.25 -0.753906 1.25 -0.765625 L 1.8125 -3.234375 C 1.8125 -3.273438 1.832031 -3.296875 1.875 -3.296875 L 2.25 -3.296875 C 2.269531 -3.296875 2.285156 -3.285156 2.296875 -3.265625 C 2.304688 -3.253906 2.3125 -3.238281 2.3125 -3.21875 L 1.5 -0.0625 C 1.5 -0.0195312 1.476562 0 1.4375 0 Z M 1.046875 0 "/></g></g></g><g fill="#000000" fill-opacity="1"><g transform="translate(73.675561, 28.721676)"><g><path d="M 2.359375 -1.53125 C 2.359375 -1.488281 2.335938 -1.46875 2.296875 -1.46875 L 0.8125 -1.46875 C 0.789062 -1.46875 0.78125 -1.460938 0.78125 -1.453125 L 0.78125 -0.96875 C 0.78125 -0.789062 0.832031 -0.644531 0.9375 -0.53125 C 1.039062 -0.414062 1.175781 -0.359375 1.34375 -0.359375 C 1.476562 -0.359375 1.59375 -0.398438 1.6875 -0.484375 C 1.789062 -0.566406 1.859375 -0.675781 1.890625 -0.8125 C 1.898438 -0.84375 1.925781 -0.859375 1.96875 -0.859375 L 2.28125 -0.859375 C 2.300781 -0.859375 2.316406 -0.847656 2.328125 -0.828125 C 2.347656 -0.816406 2.351562 -0.800781 2.34375 -0.78125 C 2.3125 -0.519531 2.207031 -0.316406 2.03125 -0.171875 C 1.851562 -0.0234375 1.625 0.046875 1.34375 0.046875 C 1.03125 0.046875 0.78125 -0.0390625 0.59375 -0.21875 C 0.414062 -0.40625 0.328125 -0.644531 0.328125 -0.9375 L 0.328125 -2.359375 C 0.328125 -2.648438 0.414062 -2.882812 0.59375 -3.0625 C 0.78125 -3.25 1.03125 -3.34375 1.34375 -3.34375 C 1.65625 -3.34375 1.898438 -3.25 2.078125 -3.0625 C 2.265625 -2.882812 2.359375 -2.648438 2.359375 -2.359375 Z M 1.34375 -2.9375 C 1.175781 -2.9375 1.039062 -2.878906 0.9375 -2.765625 C 0.832031 -2.648438 0.78125 -2.5 0.78125 -2.3125 L 0.78125 -1.890625 C 0.78125 -1.867188 0.789062 -1.859375 0.8125 -1.859375 L 1.890625 -1.859375 C 1.898438 -1.859375 1.90625 -1.867188 1.90625 -1.890625 L 1.90625 -2.3125 C 1.90625 -2.5 1.851562 -2.648438 1.75 -2.765625 C 1.644531 -2.878906 1.507812 -2.9375 1.34375 -2.9375 Z M 1.34375 -2.9375 "/></g></g></g><g fill="#000000" fill-opacity="1"><g transform="translate(76.328266, 28.721676)"><g><path d="M 0.625 0 C 0.519531 0 0.429688 -0.0351562 0.359375 -0.109375 C 0.296875 -0.179688 0.265625 -0.269531 0.265625 -0.375 C 0.265625 -0.476562 0.296875 -0.5625 0.359375 -0.625 C 0.429688 -0.695312 0.519531 -0.734375 0.625 -0.734375 C 0.726562 -0.734375 0.8125 -0.695312 0.875 -0.625 C 0.945312 -0.5625 0.984375 -0.476562 0.984375 -0.375 C 0.984375 -0.269531 0.945312 -0.179688 0.875 -0.109375 C 0.8125 -0.0351562 0.726562 0 0.625 0 Z M 0.625 0 "/></g></g></g><g fill="#000000" fill-opacity="1"><g transform="translate(77.566631, 28.721676)"><g/></g></g><g fill="#000000" fill-opacity="1"><g transform="translate(78.870173, 28.721676)"><g><path d="M 2.46875 -4.5625 C 2.507812 -4.5625 2.53125 -4.539062 2.53125 -4.5 L 2.53125 -4.21875 C 2.53125 -4.175781 2.507812 -4.15625 2.46875 -4.15625 L 1.609375 -4.15625 C 1.585938 -4.15625 1.578125 -4.144531 1.578125 -4.125 L 1.578125 -0.0625 C 1.578125 -0.0195312 1.554688 0 1.515625 0 L 1.1875 0 C 1.144531 0 1.125 -0.0195312 1.125 -0.0625 L 1.125 -4.125 C 1.125 -4.144531 1.113281 -4.15625 1.09375 -4.15625 L 0.28125 -4.15625 C 0.238281 -4.15625 0.21875 -4.175781 0.21875 -4.21875 L 0.21875 -4.5 C 0.21875 -4.539062 0.238281 -4.5625 0.28125 -4.5625 Z M 2.46875 -4.5625 "/></g></g></g><g fill="#000000" fill-opacity="1"><g transform="translate(81.627163, 28.721676)"><g><path d="M 1.5625 -3.34375 C 1.832031 -3.34375 2.039062 -3.25 2.1875 -3.0625 C 2.332031 -2.882812 2.40625 -2.632812 2.40625 -2.3125 L 2.40625 -0.0625 C 2.40625 -0.0195312 2.382812 0 2.34375 0 L 2 0 C 1.957031 0 1.9375 -0.0195312 1.9375 -0.0625 L 1.9375 -2.265625 C 1.9375 -2.484375 1.890625 -2.648438 1.796875 -2.765625 C 1.703125 -2.878906 1.570312 -2.9375 1.40625 -2.9375 C 1.238281 -2.9375 1.101562 -2.875 1 -2.75 C 0.90625 -2.625 0.859375 -2.453125 0.859375 -2.234375 L 0.859375 -0.0625 C 0.859375 -0.0195312 0.835938 0 0.796875 0 L 0.46875 0 C 0.414062 0 0.390625 -0.0195312 0.390625 -0.0625 L 0.390625 -4.5 C 0.390625 -4.539062 0.414062 -4.5625 0.46875 -4.5625 L 0.796875 -4.5625 C 0.835938 -4.5625 0.859375 -4.539062 0.859375 -4.5 L 0.859375 -3.015625 C 0.859375 -3.015625 0.863281 -3.007812 0.875 -3 C 0.882812 -3 0.890625 -3.003906 0.890625 -3.015625 C 0.972656 -3.117188 1.070312 -3.195312 1.1875 -3.25 C 1.3125 -3.3125 1.4375 -3.34375 1.5625 -3.34375 Z M 1.5625 -3.34375 "/></g></g></g><g fill="#000000" fill-opacity="1"><g transform="translate(84.390667, 28.721676)"><g><path d="M 1.515625 -3.328125 C 1.617188 -3.328125 1.710938 -3.304688 1.796875 -3.265625 C 1.828125 -3.242188 1.835938 -3.210938 1.828125 -3.171875 L 1.75 -2.828125 C 1.738281 -2.796875 1.710938 -2.785156 1.671875 -2.796875 C 1.617188 -2.816406 1.550781 -2.828125 1.46875 -2.828125 C 1.4375 -2.828125 1.410156 -2.828125 1.390625 -2.828125 C 1.234375 -2.816406 1.101562 -2.734375 1 -2.578125 C 0.90625 -2.429688 0.859375 -2.242188 0.859375 -2.015625 L 0.859375 -0.0625 C 0.859375 -0.0195312 0.835938 0 0.796875 0 L 0.46875 0 C 0.414062 0 0.390625 -0.0195312 0.390625 -0.0625 L 0.390625 -3.234375 C 0.390625 -3.273438 0.414062 -3.296875 0.46875 -3.296875 L 0.796875 -3.296875 C 0.835938 -3.296875 0.859375 -3.273438 0.859375 -3.234375 L 0.859375 -2.84375 C 0.859375 -2.832031 0.859375 -2.828125 0.859375 -2.828125 C 0.867188 -2.828125 0.878906 -2.828125 0.890625 -2.828125 C 1.015625 -3.160156 1.222656 -3.328125 1.515625 -3.328125 Z M 1.515625 -3.328125 "/></g></g></g><g fill="#000000" fill-opacity="1"><g transform="translate(86.293837, 28.721676)"><g><path d="M 0.671875 -3.890625 C 0.566406 -3.890625 0.476562 -3.925781 0.40625 -4 C 0.34375 -4.070312 0.3125 -4.160156 0.3125 -4.265625 C 0.3125 -4.367188 0.34375 -4.453125 0.40625 -4.515625 C 0.476562 -4.585938 0.566406 -4.625 0.671875 -4.625 C 0.773438 -4.625 0.859375 -4.585938 0.921875 -4.515625 C 0.992188 -4.453125 1.03125 -4.367188 1.03125 -4.265625 C 1.03125 -4.160156 0.992188 -4.070312 0.921875 -4 C 0.859375 -3.925781 0.773438 -3.890625 0.671875 -3.890625 Z M 0.515625 0 C 0.472656 0 0.453125 -0.0195312 0.453125 -0.0625 L 0.453125 -3.234375 C 0.453125 -3.273438 0.472656 -3.296875 0.515625 -3.296875 L 0.84375 -3.296875 C 0.882812 -3.296875 0.90625 -3.273438 0.90625 -3.234375 L 0.90625 -0.0625 C 0.90625 -0.0195312 0.882812 0 0.84375 0 Z M 0.515625 0 "/></g></g></g><g fill="#000000" fill-opacity="1"><g transform="translate(87.649521, 28.721676)"><g><path d="M 1.046875 0 C 1.003906 0 0.976562 -0.0195312 0.96875 -0.0625 L 0.15625 -3.21875 L 0.15625 -3.25 C 0.15625 -3.28125 0.175781 -3.296875 0.21875 -3.296875 L 0.59375 -3.296875 C 0.632812 -3.296875 0.660156 -3.273438 0.671875 -3.234375 L 1.21875 -0.765625 C 1.226562 -0.753906 1.234375 -0.75 1.234375 -0.75 C 1.242188 -0.75 1.25 -0.753906 1.25 -0.765625 L 1.8125 -3.234375 C 1.8125 -3.273438 1.832031 -3.296875 1.875 -3.296875 L 2.25 -3.296875 C 2.269531 -3.296875 2.285156 -3.285156 2.296875 -3.265625 C 2.304688 -3.253906 2.3125 -3.238281 2.3125 -3.21875 L 1.5 -0.0625 C 1.5 -0.0195312 1.476562 0 1.4375 0 Z M 1.046875 0 "/></g></g></g><g fill="#000000" fill-opacity="1"><g transform="translate(90.119731, 28.721676)"><g><path d="M 2.359375 -1.53125 C 2.359375 -1.488281 2.335938 -1.46875 2.296875 -1.46875 L 0.8125 -1.46875 C 0.789062 -1.46875 0.78125 -1.460938 0.78125 -1.453125 L 0.78125 -0.96875 C 0.78125 -0.789062 0.832031 -0.644531 0.9375 -0.53125 C 1.039062 -0.414062 1.175781 -0.359375 1.34375 -0.359375 C 1.476562 -0.359375 1.59375 -0.398438 1.6875 -0.484375 C 1.789062 -0.566406 1.859375 -0.675781 1.890625 -0.8125 C 1.898438 -0.84375 1.925781 -0.859375 1.96875 -0.859375 L 2.28125 -0.859375 C 2.300781 -0.859375 2.316406 -0.847656 2.328125 -0.828125 C 2.347656 -0.816406 2.351562 -0.800781 2.34375 -0.78125 C 2.3125 -0.519531 2.207031 -0.316406 2.03125 -0.171875 C 1.851562 -0.0234375 1.625 0.046875 1.34375 0.046875 C 1.03125 0.046875 0.78125 -0.0390625 0.59375 -0.21875 C 0.414062 -0.40625 0.328125 -0.644531 0.328125 -0.9375 L 0.328125 -2.359375 C 0.328125 -2.648438 0.414062 -2.882812 0.59375 -3.0625 C 0.78125 -3.25 1.03125 -3.34375 1.34375 -3.34375 C 1.65625 -3.34375 1.898438 -3.25 2.078125 -3.0625 C 2.265625 -2.882812 2.359375 -2.648438 2.359375 -2.359375 Z M 1.34375 -2.9375 C 1.175781 -2.9375 1.039062 -2.878906 0.9375 -2.765625 C 0.832031 -2.648438 0.78125 -2.5 0.78125 -2.3125 L 0.78125 -1.890625 C 0.78125 -1.867188 0.789062 -1.859375 0.8125 -1.859375 L 1.890625 -1.859375 C 1.898438 -1.859375 1.90625 -1.867188 1.90625 -1.890625 L 1.90625 -2.3125 C 1.90625 -2.5 1.851562 -2.648438 1.75 -2.765625 C 1.644531 -2.878906 1.507812 -2.9375 1.34375 -2.9375 Z M 1.34375 -2.9375 "/></g></g></g></svg>